<?xml version="1.0" encoding="utf-8"?>
<!-- Generator: Adobe Illustrator 23.0.1, SVG Export Plug-In . SVG Version: 6.00 Build 0)  -->
<svg version="1.1" id="Layer_1" xmlns="http://www.w3.org/2000/svg" xmlns:xlink="http://www.w3.org/1999/xlink" x="0px" y="0px"
	 viewBox="0 0 441.09 103.43" style="enable-background:new 0 0 441.09 103.43;" xml:space="preserve">
<g id="Rappore">
	<path d="M14.57,70.49H0V0.14h14.57v5.81c2.92-2.44,6.41-4.14,10.48-5.1l0.72-0.14c2.3-0.43,4.69-0.65,7.18-0.65v14.57
		c-6.84,0-11.8,2.25-14.86,6.75c-2.35,3.45-3.52,8.06-3.52,13.85V70.49z"/>
	<path d="M85.17,0.07h14.57v70.41H85.17v-5.81c-2.92,2.44-6.39,4.12-10.41,5.02l-0.79,0.14c-2.3,0.43-4.69,0.65-7.18,0.65
		c-2.49,0-4.88-0.22-7.18-0.65l-0.79-0.14c-7.75-1.63-13.83-5.48-18.23-11.56c-4.5-6.08-6.75-13.71-6.75-22.9
		c0-9.23,2.25-16.92,6.75-23.04c4.5-6.08,10.65-9.88,18.45-11.41l0.72-0.22C62.01,0.19,64.35,0,66.79,0s4.78,0.19,7.03,0.57
		l0.72,0.22c4.11,0.86,7.66,2.54,10.62,5.02V0.07z M85.17,35.17c0-5.79-1.17-10.41-3.52-13.85c-3.06-4.5-8.02-6.75-14.86-6.75
		c-6.89,0-11.87,2.25-14.93,6.75c-2.3,3.49-3.45,8.14-3.45,13.93c0,5.79,1.15,10.41,3.45,13.85c3.06,4.55,8.04,6.82,14.93,6.82
		c6.84,0,11.8-2.25,14.86-6.75c2.34-3.45,3.52-8.06,3.52-13.85V35.17z"/>
	<path d="M139.54,69.84l-0.65-0.14c-4.16-0.91-7.73-2.61-10.69-5.1v38.83h-14.57V0h14.57v5.81c2.92-2.44,6.41-4.11,10.48-5.02
		l0.72-0.14c2.3-0.43,4.69-0.65,7.18-0.65c2.49,0,4.88,0.22,7.18,0.65l0.79,0.14c7.75,1.63,13.85,5.46,18.3,11.48
		c4.45,6.13,6.68,13.78,6.68,22.97s-2.25,16.84-6.75,22.97c-4.5,6.08-10.65,9.91-18.45,11.48l-0.72,0.14
		c-2.25,0.43-4.59,0.65-7.03,0.65S141.79,70.27,139.54,69.84z M128.2,35.39c0,5.79,1.17,10.38,3.52,13.78
		c3.06,4.5,8.01,6.75,14.86,6.75c6.89,0,11.87-2.27,14.93-6.82c2.3-3.45,3.45-8.06,3.45-13.85c0-5.84-1.15-10.48-3.45-13.93
		c-3.06-4.55-8.04-6.82-14.93-6.82c-6.84,0-11.8,2.25-14.86,6.75c-2.35,3.45-3.52,8.06-3.52,13.85V35.39z"/>
	<path d="M215.45,69.84l-0.65-0.14c-4.16-0.91-7.73-2.61-10.69-5.1v38.83h-14.57V0h14.57v5.81c2.92-2.44,6.41-4.11,10.48-5.02
		l0.72-0.14c2.3-0.43,4.69-0.65,7.18-0.65c2.49,0,4.88,0.22,7.18,0.65l0.79,0.14c7.75,1.63,13.85,5.46,18.3,11.48
		c4.45,6.13,6.67,13.78,6.67,22.97s-2.25,16.84-6.75,22.97c-4.5,6.08-10.65,9.91-18.45,11.48l-0.72,0.14
		c-2.25,0.43-4.59,0.65-7.03,0.65C220.04,70.49,217.7,70.27,215.45,69.84z M204.11,35.39c0,5.79,1.17,10.38,3.52,13.78
		c3.06,4.5,8.01,6.75,14.86,6.75c6.89,0,11.87-2.27,14.93-6.82c2.3-3.45,3.45-8.06,3.45-13.85c0-5.84-1.15-10.48-3.45-13.93
		c-3.06-4.55-8.04-6.82-14.93-6.82c-6.84,0-11.8,2.25-14.86,6.75c-2.35,3.45-3.52,8.06-3.52,13.85V35.39z"/>
	<path d="M298.39,0c10,0,17.99,3.21,23.97,9.62c5.98,6.36,8.97,14.91,8.97,25.63c0,10.72-2.99,19.26-8.97,25.63
		c-5.98,6.41-13.97,9.62-23.97,9.62c-10,0-17.99-3.21-23.97-9.62c-5.98-6.36-8.97-14.91-8.97-25.63c0-10.72,2.99-19.26,8.97-25.63
		C280.4,3.21,288.39,0,298.39,0z M298.39,55.92c6.89,0,11.87-2.25,14.93-6.75c2.34-3.49,3.52-8.13,3.52-13.92
		c0-5.79-1.17-10.43-3.52-13.93c-3.06-4.5-8.04-6.75-14.93-6.75s-11.87,2.25-14.93,6.75c-2.3,3.49-3.45,8.14-3.45,13.93
		c0,5.79,1.15,10.43,3.45,13.92C286.52,53.67,291.5,55.92,298.39,55.92z"/>
	<path d="M355.92,70.49h-14.57V0.14h14.57v5.81c2.92-2.44,6.41-4.14,10.48-5.1l0.72-0.14c2.3-0.43,4.69-0.65,7.18-0.65v14.57
		c-6.84,0-11.8,2.25-14.86,6.75c-2.34,3.45-3.52,8.06-3.52,13.85V70.49z"/>
	<path d="M441.09,41.56h-50.75c1.87,9.57,8.04,14.36,18.52,14.36c4.26,0,7.99-0.79,11.2-2.37c3.16-1.63,5.43-3.85,6.82-6.68
		l13.06,6.39c-2.63,5.41-6.7,9.62-12.2,12.63c-5.5,3.06-11.8,4.59-18.88,4.59c-10.24,0-18.4-3.21-24.48-9.62
		c-6.13-6.36-9.19-14.91-9.19-25.63c0-10.72,2.99-19.26,8.97-25.63C390.15,3.21,398.14,0,408.14,0c8.76,0,16.01,2.49,21.75,7.46
		c5.74,4.93,9.28,11.7,10.62,20.31c0.38,2.2,0.57,4.47,0.57,6.82v0.65V41.56z M425.73,27.78c-2.06-8.8-7.92-13.21-17.59-13.21
		s-15.53,4.4-17.59,13.21H425.73z"/>
</g>
</svg>
